ply
format ascii 1.0
comment Created by Blender 2.76 (sub 0) - www.blender.org, source file: ''
element vertex 482
property float x
property float y
property float z
property float nx
property float ny
property float nz
element face 960
property list uchar uint vertex_indices
end_header
-0.707107 0.000000 -0.707107 -0.710135 0.000000 -0.704031
-0.831470 0.000000 -0.555570 -0.833338 0.000000 -0.552751
-0.815493 0.162212 -0.555570 -0.817316 0.162572 -0.552751
-0.707107 0.000000 0.707107 -0.710135 0.000000 0.704031
-0.693520 0.137950 0.707107 -0.696493 0.138524 0.704031
-0.815493 0.162212 0.555570 -0.817316 0.162572 0.552751
-0.693520 0.137950 -0.707107 -0.696493 0.138524 -0.704031
-0.544895 0.108386 -0.831470 -0.548997 0.109195 -0.828639
-0.831470 0.000000 0.555570 -0.833338 0.000000 0.552751
-0.906127 0.180240 0.382683 -0.906980 0.180395 0.380535
-0.382683 0.000000 -0.923880 -0.387860 0.000000 -0.921690
-0.555570 0.000000 -0.831470 -0.559771 0.000000 -0.828639
-0.923880 0.000000 0.382683 -0.924741 0.000000 0.380535
-0.961940 0.191342 0.195090 -0.962157 0.191382 0.193915
-0.195090 0.000000 -0.980785 -0.200964 0.000000 -0.979583
-0.375330 0.074658 -0.923880 -0.380413 0.075655 -0.921690
-0.980785 0.000000 0.195090 -0.980987 0.000000 0.193915
-0.980785 0.195090 0.000000 -0.980773 0.195074 0.000000
-0.980785 0.000000 -0.195090 -0.980987 0.000000 -0.193915
-1.000000 0.000000 0.000000 -1.000000 0.000000 0.000000
-0.382683 0.000000 0.923880 -0.387860 0.000000 0.921690
-0.195090 0.000000 0.980785 -0.200964 0.000000 0.979583
-0.191342 0.038060 0.980785 -0.197089 0.039186 0.979583
-0.961940 0.191342 -0.195090 -0.962157 0.191382 -0.193915
-0.906127 0.180240 -0.382683 -0.906980 0.180395 -0.380535
-0.375330 0.074658 0.923880 -0.380413 0.075655 0.921690
-0.544895 0.108386 0.831470 -0.548997 0.109195 0.828639
-0.923880 0.000000 -0.382683 -0.924741 0.000000 -0.380535
-0.555570 0.000000 0.831470 -0.559771 0.000000 0.828639
-0.853553 0.353554 -0.382683 -0.854366 0.353862 -0.380535
-0.768178 0.318190 -0.555570 -0.769890 0.318888 -0.552751
-0.513280 0.212608 0.831470 -0.517136 0.214209 0.828639
-0.653281 0.270598 0.707107 -0.656056 0.271737 0.704031
-0.768178 0.318190 0.555570 -0.769890 0.318888 0.552751
-0.653281 0.270598 -0.707107 -0.656056 0.271737 -0.704031
-0.513280 0.212608 -0.831470 -0.517136 0.214209 -0.828639
-0.853553 0.353553 0.382683 -0.854366 0.353862 0.380535
-0.906127 0.375330 0.195090 -0.906339 0.375408 0.193915
-0.353553 0.146447 -0.923880 -0.358348 0.148412 -0.921690
-0.180240 0.074658 -0.980785 -0.185644 0.076907 -0.979583
-0.923879 0.382684 0.000000 -0.923856 0.382672 0.000000
-0.906127 0.375330 -0.195090 -0.906339 0.375408 -0.193915
-0.180240 0.074658 0.980785 -0.185644 0.076876 0.979583
-0.353553 0.146447 0.923880 -0.358348 0.148412 0.921690
-0.318189 0.212608 -0.923880 -0.322489 0.215491 -0.921690
-0.815493 0.544895 0.195090 -0.815668 0.545000 0.193915
-0.831469 0.555570 0.000000 -0.831446 0.555559 0.000000
-0.815493 0.544895 -0.195090 -0.815668 0.545000 -0.193915
-0.162212 0.108387 0.980785 -0.167089 0.111637 0.979583
-0.318190 0.212608 0.923880 -0.322489 0.215491 0.921690
-0.768178 0.513280 -0.382683 -0.768914 0.513749 -0.380535
-0.691342 0.461940 -0.555570 -0.692892 0.462966 -0.552751
-0.461940 0.308658 0.831470 -0.465407 0.310984 0.828639
-0.587938 0.392848 -0.707107 -0.590442 0.394513 -0.704031
-0.587938 0.392848 0.707107 -0.590442 0.394513 0.704031
-0.461940 0.308658 -0.831470 -0.465407 0.310984 -0.828639
-0.691342 0.461940 0.555570 -0.692892 0.462966 0.552751
-0.768178 0.513280 0.382683 -0.768914 0.513749 0.380535
-0.392847 0.392848 0.831470 -0.395795 0.395795 0.828639
-0.500000 0.500000 0.707107 -0.502121 0.502121 0.704031
-0.587938 0.587938 -0.555570 -0.589251 0.589251 -0.552751
-0.587938 0.587938 0.555570 -0.589251 0.589251 0.552751
-0.500000 0.500000 -0.707107 -0.502121 0.502121 -0.704031
-0.392847 0.392848 -0.831470 -0.395795 0.395795 -0.828639
-0.653281 0.653282 0.382683 -0.653890 0.653890 0.380535
-0.693520 0.693520 0.195090 -0.693655 0.693655 0.193915
-0.270598 0.270598 -0.923880 -0.274270 0.274270 -0.921690
-0.137949 0.137950 -0.980785 -0.142094 0.142094 -0.979583
-0.707107 0.707107 0.000000 -0.707083 0.707083 0.000000
-0.693520 0.693520 -0.195090 -0.693655 0.693655 -0.193915
-0.137950 0.137950 0.980785 -0.142094 0.142094 0.979583
-0.270598 0.270598 0.923880 -0.274270 0.274270 0.921690
-0.653281 0.653282 -0.382683 -0.653890 0.653890 -0.380535
-0.544895 0.815493 0.195090 -0.545000 0.815668 0.193915
-0.555570 0.831470 0.000000 -0.555559 0.831446 0.000000
-0.544895 0.815493 -0.195090 -0.545000 0.815668 -0.193915
-0.108386 0.162212 0.980785 -0.111637 0.167089 0.979583
-0.212607 0.318190 0.923880 -0.215491 0.322489 0.921690
-0.513280 0.768178 -0.382683 -0.513749 0.768914 -0.380535
-0.461940 0.691342 -0.555570 -0.462966 0.692892 -0.552751
-0.308658 0.461940 0.831470 -0.310984 0.465407 0.828639
-0.392847 0.587938 0.707107 -0.394513 0.590442 0.704031
-0.461940 0.691342 0.555570 -0.462966 0.692892 0.552751
-0.392847 0.587938 -0.707107 -0.394513 0.590442 -0.704031
-0.308658 0.461940 -0.831470 -0.310984 0.465407 -0.828639
-0.212607 0.318190 -0.923880 -0.215491 0.322489 -0.921690
-0.513280 0.768178 0.382683 -0.513749 0.768914 0.380535
-0.108386 0.162212 -0.980785 -0.111637 0.167089 -0.979583
-0.318189 0.768178 -0.555570 -0.318888 0.769890 -0.552751
-0.270598 0.653282 -0.707107 -0.271737 0.656056 -0.704031
-0.270598 0.653282 0.707107 -0.271737 0.656056 0.704031
-0.318189 0.768178 0.555570 -0.318888 0.769890 0.552751
-0.212607 0.513280 -0.831470 -0.214209 0.517136 -0.828639
-0.353553 0.853554 0.382683 -0.353893 0.854366 0.380535
-0.375330 0.906128 0.195090 -0.375408 0.906339 0.193915
-0.146446 0.353554 -0.923880 -0.148412 0.358348 -0.921690
-0.074658 0.180240 -0.980785 -0.076907 0.185644 -0.979583
-0.382683 0.923880 0.000000 -0.382672 0.923856 0.000000
-0.375330 0.906128 -0.195090 -0.375408 0.906339 -0.193915
-0.074658 0.180240 0.980785 -0.076907 0.185644 0.979583
-0.353553 0.853554 -0.382683 -0.353893 0.854366 -0.380535
-0.146446 0.353554 0.923880 -0.148412 0.358348 0.921690
-0.212607 0.513280 0.831470 -0.214209 0.517136 0.828639
-0.195090 0.980785 0.000000 -0.195074 0.980773 0.000000
-0.038060 0.191342 0.980785 -0.039186 0.197089 0.979583
-0.191341 0.961940 -0.195090 -0.191382 0.962157 -0.193915
-0.180240 0.906128 -0.382683 -0.180395 0.906980 -0.380535
-0.074658 0.375331 0.923880 -0.075655 0.380413 0.921690
-0.108386 0.544895 0.831470 -0.109195 0.548997 0.828639
-0.137949 0.693520 0.707107 -0.138524 0.696493 0.704031
-0.162211 0.815493 -0.555570 -0.162572 0.817316 -0.552751
-0.162211 0.815493 0.555570 -0.162572 0.817316 0.552751
-0.137949 0.693520 -0.707107 -0.138524 0.696493 -0.704031
-0.180240 0.906128 0.382683 -0.180395 0.906980 0.380535
-0.108386 0.544895 -0.831470 -0.109195 0.548997 -0.828639
-0.074658 0.375330 -0.923880 -0.075655 0.380413 -0.921690
-0.191341 0.961940 0.195090 -0.191382 0.962157 0.193915
0.000000 0.707107 0.707107 0.000000 0.710135 0.704031
0.000000 0.707107 -0.707107 0.000000 0.710135 -0.704031
0.000000 0.555570 -0.831470 0.000000 0.559771 -0.828639
0.000000 0.831470 0.555570 0.000000 0.833338 0.552751
0.000000 0.923880 0.382683 0.000000 0.924741 0.380535
0.000000 0.382684 -0.923880 0.000000 0.387860 -0.921690
-0.038060 0.191342 -0.980785 -0.039186 0.197089 -0.979583
0.000000 0.980785 0.195090 0.000000 0.980987 0.193915
0.000000 1.000000 0.000000 0.000000 1.000000 0.000000
0.000000 0.195091 0.980785 0.000000 0.200964 0.979583
0.000000 0.980785 -0.195090 0.000000 0.980987 -0.193915
0.000000 0.923880 -0.382683 0.000000 0.924741 -0.380535
0.000000 0.382684 0.923880 0.000000 0.387860 0.921690
0.000000 0.555570 0.831470 0.000000 0.559771 0.828639
0.000000 0.831470 -0.555570 0.000000 0.833338 -0.552751
0.195091 0.980785 0.000000 0.195074 0.980773 0.000000
0.191342 0.961940 -0.195090 0.191382 0.962157 -0.193915
0.038061 0.191342 0.980785 0.039186 0.197089 0.979583
0.074658 0.375331 0.923880 0.075655 0.380413 0.921690
0.180240 0.906128 -0.382683 0.180395 0.906980 -0.380535
0.108387 0.544895 0.831470 0.109195 0.548997 0.828639
0.137950 0.693520 0.707107 0.138524 0.696493 0.704031
0.162212 0.815493 -0.555570 0.162572 0.817316 -0.552751
0.162212 0.815493 0.555570 0.162572 0.817316 0.552751
0.137950 0.693520 -0.707107 0.138524 0.696493 -0.704031
0.180240 0.906128 0.382683 0.180395 0.906980 0.380535
0.108387 0.544895 -0.831470 0.109195 0.548997 -0.828639
0.074658 0.375330 -0.923880 0.075655 0.380413 -0.921690
0.038061 0.191342 -0.980785 0.039186 0.197089 -0.979583
0.191342 0.961940 0.195090 0.191382 0.962157 0.193915
0.270598 0.653282 -0.707107 0.271737 0.656056 -0.704031
0.318190 0.768178 0.555570 0.318888 0.769890 0.552751
0.353554 0.853554 0.382683 0.353893 0.854366 0.380535
0.212608 0.513280 -0.831470 0.214209 0.517136 -0.828639
0.146447 0.353553 -0.923880 0.148412 0.358348 -0.921690
0.375331 0.906127 0.195090 0.375408 0.906339 0.193915
0.382684 0.923880 0.000000 0.382672 0.923856 0.000000
0.375331 0.906127 -0.195090 0.375408 0.906339 -0.193915
0.074658 0.180240 0.980785 0.076876 0.185644 0.979583
0.146447 0.353554 0.923880 0.148412 0.358348 0.921690
0.353554 0.853554 -0.382683 0.353893 0.854366 -0.380535
0.212608 0.513280 0.831470 0.214209 0.517136 0.828639
0.270598 0.653282 0.707107 0.271737 0.656056 0.704031
0.318190 0.768178 -0.555570 0.318888 0.769890 -0.552751
0.544895 0.815493 -0.195090 0.545000 0.815668 -0.193915
0.513280 0.768178 -0.382683 0.513749 0.768914 -0.380535
0.212608 0.318190 0.923880 0.215491 0.322489 0.921690
0.308659 0.461940 0.831470 0.310984 0.465407 0.828639
0.392848 0.587938 0.707107 0.394513 0.590442 0.704031
0.461940 0.691342 -0.555570 0.462966 0.692892 -0.552751
0.392848 0.587938 -0.707107 0.394513 0.590442 -0.704031
0.461940 0.691342 0.555570 0.462966 0.692892 0.552751
0.513280 0.768178 0.382683 0.513749 0.768914 0.380535
0.308659 0.461940 -0.831470 0.310984 0.465407 -0.828639
0.212608 0.318190 -0.923880 0.215491 0.322489 -0.921690
0.108387 0.162212 -0.980785 0.111637 0.167089 -0.979583
0.544895 0.815493 0.195090 0.545000 0.815668 0.193915
0.555571 0.831470 0.000000 0.555559 0.831446 0.000000
0.108387 0.162212 0.980785 0.111637 0.167089 0.979583
0.392848 0.392848 -0.831470 0.395795 0.395795 -0.828639
0.653282 0.653282 0.382683 0.653890 0.653890 0.380535
0.270598 0.270598 -0.923880 0.274270 0.274270 -0.921690
0.693520 0.693520 0.195090 0.693655 0.693655 0.193915
0.707107 0.707107 0.000000 0.707083 0.707083 0.000000
0.693520 0.693520 -0.195090 0.693655 0.693655 -0.193915
0.137950 0.137950 0.980785 0.142094 0.142094 0.979583
0.270599 0.270598 0.923880 0.274270 0.274270 0.921690
0.653282 0.653282 -0.382683 0.653890 0.653890 -0.380535
0.392848 0.392848 0.831470 0.395795 0.395795 0.828639
0.587938 0.587938 -0.555570 0.589251 0.589251 -0.552751
0.500000 0.500000 0.707107 0.502121 0.502121 0.704031
0.587938 0.587938 0.555570 0.589251 0.589251 0.552751
0.500000 0.500000 -0.707107 0.502121 0.502121 -0.704031
0.318190 0.212608 0.923880 0.322489 0.215491 0.921690
0.461940 0.308658 0.831470 0.465407 0.310984 0.828639
0.768178 0.513280 -0.382683 0.768914 0.513749 -0.380535
0.587938 0.392848 0.707107 0.590442 0.394513 0.704031
0.691342 0.461940 -0.555570 0.692892 0.462966 -0.552751
0.587938 0.392848 -0.707107 0.590442 0.394513 -0.704031
0.691342 0.461940 0.555570 0.692892 0.462966 0.552751
0.768178 0.513280 0.382683 0.768914 0.513749 0.380535
0.461940 0.308658 -0.831470 0.465407 0.310984 -0.828639
0.318190 0.212608 -0.923880 0.322489 0.215491 -0.921690
0.815493 0.544895 0.195090 0.815668 0.545000 0.193915
0.137950 0.137950 -0.980785 0.142094 0.142094 -0.979583
0.831470 0.555570 0.000000 0.831446 0.555559 0.000000
0.815493 0.544895 -0.195090 0.815668 0.545000 -0.193915
0.162212 0.108386 0.980785 0.167089 0.111637 0.979583
0.853554 0.353553 0.382683 0.854366 0.353862 0.380535
0.906128 0.375330 0.195090 0.906339 0.375408 0.193915
0.353554 0.146447 -0.923880 0.358348 0.148412 -0.921690
0.180240 0.074658 -0.980785 0.185644 0.076907 -0.979583
0.923880 0.382683 0.000000 0.923856 0.382672 0.000000
0.906128 0.375330 -0.195090 0.906339 0.375408 -0.193915
0.180240 0.074658 0.980785 0.185644 0.076907 0.979583
0.353554 0.146447 0.923880 0.358348 0.148412 0.921690
0.853554 0.353553 -0.382683 0.854366 0.353893 -0.380535
0.768178 0.318190 -0.555570 0.769890 0.318888 -0.552751
0.513280 0.212608 0.831470 0.517136 0.214209 0.828639
0.653282 0.270598 0.707107 0.656056 0.271737 0.704031
0.768178 0.318190 0.555570 0.769890 0.318888 0.552751
0.653282 0.270598 -0.707107 0.656056 0.271737 -0.704031
0.513280 0.212608 -0.831470 0.517136 0.214209 -0.828639
0.906128 0.180240 -0.382683 0.906980 0.180395 -0.380535
0.815493 0.162212 -0.555570 0.817316 0.162572 -0.552751
0.544896 0.108386 0.831470 0.548997 0.109195 0.828639
0.693520 0.137950 0.707107 0.696493 0.138524 0.704031
0.815493 0.162212 0.555570 0.817316 0.162572 0.552751
0.693520 0.137950 -0.707107 0.696493 0.138524 -0.704031
0.544895 0.108386 -0.831470 0.548997 0.109195 -0.828639
0.906128 0.180240 0.382683 0.906980 0.180395 0.380535
0.961940 0.191342 0.195090 0.962157 0.191382 0.193915
0.375331 0.074658 -0.923880 0.380413 0.075655 -0.921690
0.191342 0.038060 -0.980785 0.197089 0.039186 -0.979583
0.980786 0.195090 0.000000 0.980773 0.195074 0.000000
0.961940 0.191342 -0.195090 0.962157 0.191382 -0.193915
0.191342 0.038060 0.980785 0.197089 0.039186 0.979583
0.375331 0.074658 0.923880 0.380413 0.075655 0.921690
0.382684 0.000000 -0.923880 0.387860 0.000000 -0.921690
0.195091 0.000000 -0.980785 0.200964 0.000000 -0.979583
0.980785 0.000000 0.195090 0.980987 0.000000 0.193915
1.000000 0.000000 0.000000 1.000000 0.000000 0.000000
0.980785 0.000000 -0.195090 0.980987 0.000000 -0.193915
0.195091 0.000000 0.980785 0.200964 0.000000 0.979583
0.382684 0.000000 0.923880 0.387860 0.000000 0.921690
0.555571 0.000000 0.831470 0.559771 0.000000 0.828639
0.923880 0.000000 -0.382683 0.924741 0.000000 -0.380535
0.831470 0.000000 -0.555570 0.833338 0.000000 -0.552751
0.707107 0.000000 0.707107 0.710135 0.000000 0.704031
0.707107 0.000000 -0.707107 0.710135 0.000000 -0.704031
0.831470 0.000000 0.555570 0.833338 0.000000 0.552751
0.555570 0.000000 -0.831470 0.559771 0.000000 -0.828639
0.923880 0.000000 0.382683 0.924741 0.000000 0.380535
0.544896 -0.108386 0.831470 0.548997 -0.109195 0.828639
0.815493 -0.162212 -0.555570 0.817316 -0.162572 -0.552751
0.693520 -0.137950 0.707107 0.696493 -0.138524 0.704031
0.815493 -0.162212 0.555570 0.817316 -0.162572 0.552751
0.693520 -0.137950 -0.707107 0.696493 -0.138524 -0.704031
0.544895 -0.108386 -0.831470 0.548997 -0.109195 -0.828639
0.906128 -0.180240 0.382683 0.906980 -0.180395 0.380535
0.375331 -0.074658 -0.923880 0.380413 -0.075655 -0.921690
0.961940 -0.191342 0.195090 0.962157 -0.191382 0.193915
0.980786 -0.195090 0.000000 0.980773 -0.195074 0.000000
0.191342 -0.038060 0.980785 0.197089 -0.039186 0.979583
0.375331 -0.074658 0.923880 0.380413 -0.075655 0.921690
0.961940 -0.191342 -0.195090 0.962157 -0.191382 -0.193915
0.906128 -0.180240 -0.382683 0.906980 -0.180395 -0.380535
0.906127 -0.375330 0.195090 0.906339 -0.375408 0.193915
0.923880 -0.382684 0.000000 0.923856 -0.382672 0.000000
0.180240 -0.074658 0.980785 0.185644 -0.076907 0.979583
0.353554 -0.146447 0.923880 0.358348 -0.148412 0.921690
0.906127 -0.375330 -0.195090 0.906339 -0.375408 -0.193915
0.853554 -0.353553 -0.382683 0.854366 -0.353893 -0.380535
0.513280 -0.212608 0.831470 0.517136 -0.214209 0.828639
0.653282 -0.270598 0.707107 0.656056 -0.271737 0.704031
0.768178 -0.318190 -0.555570 0.769890 -0.318888 -0.552751
0.653282 -0.270598 -0.707107 0.656056 -0.271737 -0.704031
0.513280 -0.212608 -0.831470 0.517136 -0.214209 -0.828639
0.768178 -0.318190 0.555570 0.769890 -0.318888 0.552751
0.853554 -0.353553 0.382683 0.854366 -0.353893 0.380535
0.353554 -0.146447 -0.923880 0.358348 -0.148412 -0.921690
0.191342 -0.038060 -0.980785 0.197089 -0.039186 -0.979583
0.691342 -0.461940 -0.555570 0.692892 -0.462966 -0.552751
0.587938 -0.392847 -0.707107 0.590442 -0.394513 -0.704031
0.587938 -0.392847 0.707107 0.590442 -0.394513 0.704031
0.691342 -0.461940 0.555570 0.692892 -0.462966 0.552751
0.768178 -0.513280 0.382683 0.768914 -0.513749 0.380535
0.461940 -0.308658 -0.831470 0.465407 -0.310984 -0.828639
0.180240 -0.074658 -0.980785 0.185644 -0.076907 -0.979583
0.318190 -0.212607 -0.923880 0.322489 -0.215491 -0.921690
0.815493 -0.544895 0.195090 0.815668 -0.545000 0.193915
0.831470 -0.555570 0.000000 0.831446 -0.555559 0.000000
0.162212 -0.108386 0.980785 0.167089 -0.111637 0.979583
0.318190 -0.212608 0.923880 0.322489 -0.215491 0.921690
0.815493 -0.544895 -0.195090 0.815668 -0.545000 -0.193915
0.768178 -0.513280 -0.382683 0.768914 -0.513749 -0.380535
0.461940 -0.308658 0.831470 0.465407 -0.310984 0.828639
0.707107 -0.707107 0.000000 0.707083 -0.707083 0.000000
0.137950 -0.137950 0.980785 0.142094 -0.142094 0.979583
0.693520 -0.693520 -0.195090 0.693655 -0.693655 -0.193915
0.653282 -0.653281 -0.382683 0.653890 -0.653890 -0.380535
0.270598 -0.270598 0.923880 0.274270 -0.274270 0.921690
0.392848 -0.392848 0.831470 0.395795 -0.395795 0.828639
0.587938 -0.587938 -0.555570 0.589251 -0.589251 -0.552751
0.500000 -0.500000 -0.707107 0.502121 -0.502121 -0.704031
0.500000 -0.500000 0.707107 0.502121 -0.502121 0.704031
0.392848 -0.392847 -0.831470 0.395795 -0.395795 -0.828639
0.587938 -0.587938 0.555570 0.589251 -0.589251 0.552751
0.653282 -0.653281 0.382683 0.653890 -0.653890 0.380535
0.270598 -0.270598 -0.923880 0.274270 -0.274270 -0.921690
0.137950 -0.137950 -0.980785 0.142094 -0.142094 -0.979583
0.693520 -0.693520 0.195090 0.693655 -0.693655 0.193915
0.392848 -0.587938 -0.707107 0.394513 -0.590442 -0.704031
0.308658 -0.461940 -0.831470 0.310984 -0.465407 -0.828639
0.461940 -0.691342 0.555570 0.462966 -0.692892 0.552751
0.513280 -0.768178 0.382683 0.513749 -0.768914 0.380535
0.212608 -0.318190 -0.923880 0.215491 -0.322489 -0.921690
0.108387 -0.162212 -0.980785 0.111637 -0.167089 -0.979583
0.544895 -0.815493 0.195090 0.545000 -0.815668 0.193915
0.555570 -0.831470 0.000000 0.555559 -0.831446 0.000000
0.544895 -0.815493 -0.195090 0.545000 -0.815668 -0.193915
0.108387 -0.162212 0.980785 0.111637 -0.167089 0.979583
0.513280 -0.768178 -0.382683 0.513749 -0.768914 -0.380535
0.212608 -0.318190 0.923880 0.215491 -0.322489 0.921690
0.308659 -0.461940 0.831470 0.310984 -0.465407 0.828639
0.461940 -0.691342 -0.555570 0.462966 -0.692892 -0.552751
0.392848 -0.587938 0.707107 0.394513 -0.590442 0.704031
0.074658 -0.180240 0.980785 0.076907 -0.185644 0.979583
0.146447 -0.353553 0.923880 0.148412 -0.358348 0.921690
0.375330 -0.906127 -0.195090 0.375408 -0.906339 -0.193915
0.353554 -0.853553 -0.382683 0.353862 -0.854366 -0.380535
0.212608 -0.513280 0.831470 0.214209 -0.517136 0.828639
0.270598 -0.653281 0.707107 0.271737 -0.656056 0.704031
0.318190 -0.768177 -0.555570 0.318888 -0.769890 -0.552751
0.318190 -0.768177 0.555570 0.318888 -0.769890 0.552751
0.270598 -0.653281 -0.707107 0.271737 -0.656056 -0.704031
0.353554 -0.853553 0.382683 0.353862 -0.854366 0.380535
0.212608 -0.513280 -0.831470 0.214209 -0.517136 -0.828639
0.146447 -0.353553 -0.923880 0.148412 -0.358348 -0.921690
0.375330 -0.906127 0.195090 0.375408 -0.906339 0.193915
0.382684 -0.923880 0.000000 0.382672 -0.923856 0.000000
0.162212 -0.815493 0.555570 0.162572 -0.817316 0.552751
0.108387 -0.544895 -0.831470 0.109195 -0.548997 -0.828639
0.180240 -0.906127 0.382683 0.180395 -0.906980 0.380535
0.074658 -0.375330 -0.923880 0.075655 -0.380413 -0.921690
0.038061 -0.191342 -0.980785 0.039186 -0.197089 -0.979583
0.191342 -0.961939 0.195090 0.191382 -0.962157 0.193915
0.195090 -0.980785 0.000000 0.195074 -0.980773 0.000000
0.191342 -0.961939 -0.195090 0.191382 -0.962157 -0.193915
0.038061 -0.191342 0.980785 0.039186 -0.197089 0.979583
0.180240 -0.906127 -0.382683 0.180395 -0.906980 -0.380535
0.074658 -0.375330 0.923880 0.075655 -0.380413 0.921690
0.108387 -0.544895 0.831470 0.109195 -0.548997 0.828639
0.162212 -0.815493 -0.555570 0.162572 -0.817316 -0.552751
0.137950 -0.693520 -0.707107 0.138524 -0.696493 -0.704031
0.137950 -0.693520 0.707107 0.138524 -0.696493 0.704031
0.000000 -0.980785 -0.195090 0.000000 -0.980987 -0.193915
0.000000 -0.923879 -0.382683 0.000000 -0.924741 -0.380535
0.000000 -0.382683 0.923880 0.000000 -0.387860 0.921690
0.000000 -0.555570 0.831470 0.000000 -0.559771 0.828639
0.000000 -0.831469 -0.555570 0.000000 -0.833338 -0.552751
0.000000 -0.707107 0.707107 0.000000 -0.710135 0.704031
0.000000 -0.831469 0.555570 0.000000 -0.833338 0.552751
0.000000 -0.707107 -0.707107 0.000000 -0.710135 -0.704031
0.000000 -0.555570 -0.831470 0.000000 -0.559771 -0.828639
0.000000 -0.923879 0.382683 0.000000 -0.924741 0.380535
0.000000 -0.980785 0.195090 0.000000 -0.980987 0.193915
0.000000 -0.382683 -0.923880 0.000000 -0.387860 -0.921690
0.000000 -1.000000 0.000000 0.000000 -1.000000 0.000000
0.000000 -0.195090 0.980785 0.000000 -0.200964 0.979583
-0.108386 -0.544895 -0.831470 -0.109195 -0.548997 -0.828639
-0.180240 -0.906127 0.382683 -0.180395 -0.906980 0.380535
-0.074658 -0.375330 -0.923880 -0.075655 -0.380413 -0.921690
-0.038060 -0.191342 -0.980785 -0.039186 -0.197089 -0.979583
-0.191342 -0.961939 0.195090 -0.191382 -0.962157 0.193915
-0.195090 -0.980785 0.000000 -0.195074 -0.980773 0.000000
-0.038060 -0.191342 0.980785 -0.039186 -0.197089 0.979583
-0.191342 -0.961939 -0.195090 -0.191382 -0.962157 -0.193915
-0.180240 -0.906127 -0.382683 -0.180395 -0.906980 -0.380535
-0.074658 -0.375330 0.923880 -0.075655 -0.380413 0.921690
-0.108386 -0.544895 0.831470 -0.109195 -0.548997 0.828639
-0.162211 -0.815493 -0.555570 -0.162572 -0.817316 -0.552751
-0.137949 -0.693520 0.707107 -0.138524 -0.696493 0.704031
-0.137949 -0.693520 -0.707107 -0.138524 -0.696493 -0.704031
-0.162211 -0.815493 0.555570 -0.162572 -0.817316 0.552751
-0.146446 -0.353553 0.923880 -0.148412 -0.358348 0.921690
-0.212607 -0.513280 0.831470 -0.214209 -0.517136 0.828639
-0.353553 -0.853553 -0.382683 -0.353862 -0.854366 -0.380535
-0.318189 -0.768177 -0.555570 -0.318888 -0.769890 -0.552751
-0.270598 -0.653281 0.707107 -0.271737 -0.656056 0.704031
-0.318189 -0.768177 0.555570 -0.318888 -0.769890 0.552751
-0.270598 -0.653281 -0.707107 -0.271737 -0.656056 -0.704031
-0.212607 -0.513280 -0.831470 -0.214209 -0.517136 -0.828639
-0.353553 -0.853553 0.382683 -0.353862 -0.854366 0.380535
-0.146446 -0.353553 -0.923880 -0.148412 -0.358348 -0.921690
-0.375330 -0.906127 0.195090 -0.375408 -0.906339 0.193915
-0.382683 -0.923879 0.000000 -0.382672 -0.923856 0.000000
-0.074658 -0.180240 0.980785 -0.076907 -0.185644 0.979583
-0.375330 -0.906127 -0.195090 -0.375408 -0.906339 -0.193915
-0.513280 -0.768178 0.382683 -0.513749 -0.768883 0.380535
-0.212607 -0.318189 -0.923880 -0.215491 -0.322489 -0.921690
-0.108386 -0.162212 -0.980785 -0.111637 -0.167089 -0.979583
-0.544895 -0.815493 0.195090 -0.545000 -0.815668 0.193915
-0.555570 -0.831469 0.000000 -0.555559 -0.831446 0.000000
-0.544895 -0.815493 -0.195090 -0.545000 -0.815668 -0.193915
-0.108386 -0.162212 0.980785 -0.111637 -0.167089 0.979583
-0.513280 -0.768178 -0.382683 -0.513749 -0.768883 -0.380535
-0.212607 -0.318190 0.923880 -0.215491 -0.322489 0.921690
-0.461939 -0.691341 -0.555570 -0.462966 -0.692892 -0.552751
-0.308658 -0.461940 0.831470 -0.310984 -0.465407 0.828639
-0.392847 -0.587938 -0.707107 -0.394513 -0.590442 -0.704031
-0.392847 -0.587938 0.707107 -0.394513 -0.590442 0.704031
-0.308658 -0.461940 -0.831470 -0.310984 -0.465407 -0.828639
-0.461939 -0.691341 0.555570 -0.462966 -0.692892 0.552751
-0.653281 -0.653281 -0.382683 -0.653890 -0.653890 -0.380535
-0.392847 -0.392847 0.831470 -0.395795 -0.395795 0.828639
-0.500000 -0.500000 0.707107 -0.502121 -0.502121 0.704031
-0.587937 -0.587937 -0.555570 -0.589251 -0.589251 -0.552751
-0.500000 -0.500000 -0.707107 -0.502121 -0.502121 -0.704031
-0.587937 -0.587937 0.555570 -0.589251 -0.589251 0.552751
-0.653281 -0.653281 0.382683 -0.653890 -0.653890 0.380535
-0.392847 -0.392847 -0.831470 -0.395795 -0.395795 -0.828639
-0.270598 -0.270598 -0.923880 -0.274270 -0.274270 -0.921690
-0.693519 -0.693519 0.195090 -0.693655 -0.693655 0.193915
-0.137949 -0.137950 -0.980785 -0.142094 -0.142094 -0.979583
-0.707106 -0.707106 0.000000 -0.707083 -0.707083 0.000000
-0.137949 -0.137950 0.980785 -0.142094 -0.142094 0.979583
-0.270598 -0.270598 0.923880 -0.274270 -0.274270 0.921690
-0.693519 -0.693519 -0.195090 -0.693655 -0.693655 -0.193915
-0.318189 -0.212607 -0.923880 -0.322489 -0.215491 -0.921690
-0.815492 -0.544895 0.195090 -0.815668 -0.545000 0.193915
-0.831469 -0.555570 0.000000 -0.831446 -0.555559 0.000000
-0.815492 -0.544895 -0.195090 -0.815668 -0.545000 -0.193915
-0.162211 -0.108386 0.980785 -0.167089 -0.111637 0.979583
-0.318189 -0.212607 0.923880 -0.322489 -0.215491 0.921690
-0.768177 -0.513280 -0.382683 -0.768914 -0.513749 -0.380535
-0.461939 -0.308658 0.831470 -0.465407 -0.310984 0.828639
-0.587937 -0.392847 0.707107 -0.590442 -0.394513 0.704031
-0.691341 -0.461939 -0.555570 -0.692892 -0.462966 -0.552751
-0.691341 -0.461939 0.555570 -0.692892 -0.462966 0.552751
-0.587937 -0.392847 -0.707107 -0.590442 -0.394513 -0.704031
-0.768177 -0.513280 0.382683 -0.768914 -0.513749 0.380535
-0.461939 -0.308658 -0.831470 -0.465407 -0.310984 -0.828639
-0.768177 -0.318189 -0.555570 -0.769890 -0.318888 -0.552751
-0.653281 -0.270598 -0.707107 -0.656056 -0.271737 -0.704031
-0.653281 -0.270598 0.707107 -0.656056 -0.271737 0.704031
-0.513279 -0.212607 -0.831470 -0.517136 -0.214209 -0.828639
-0.768177 -0.318189 0.555570 -0.769890 -0.318888 0.552751
-0.853553 -0.353553 0.382683 -0.854366 -0.353893 0.380535
-0.906127 -0.375330 0.195090 -0.906339 -0.375408 0.193915
-0.353553 -0.146446 -0.923880 -0.358348 -0.148412 -0.921690
-0.180240 -0.074658 -0.980785 -0.185644 -0.076907 -0.979583
-0.923879 -0.382683 0.000000 -0.923856 -0.382672 0.000000
-0.906127 -0.375330 -0.195090 -0.906339 -0.375408 -0.193915
-0.180240 -0.074658 0.980785 -0.185644 -0.076907 0.979583
-0.353553 -0.146447 0.923880 -0.358348 -0.148412 0.921690
-0.853553 -0.353553 -0.382683 -0.854366 -0.353893 -0.380535
-0.513280 -0.212607 0.831470 -0.517136 -0.214209 0.828639
-0.980785 -0.195090 0.000000 -0.980773 -0.195074 0.000000
-0.191342 -0.038060 0.980785 -0.197089 -0.039186 0.979583
-0.375330 -0.074658 0.923880 -0.380413 -0.075655 0.921690
-0.961939 -0.191341 -0.195090 -0.962157 -0.191382 -0.193915
-0.906127 -0.180240 -0.382683 -0.906980 -0.180395 -0.380535
-0.544895 -0.108386 0.831470 -0.548997 -0.109195 0.828639
-0.693520 -0.137950 0.707107 -0.696493 -0.138524 0.704031
-0.815492 -0.162211 -0.555570 -0.817316 -0.162572 -0.552751
-0.693520 -0.137950 -0.707107 -0.696493 -0.138524 -0.704031
-0.544895 -0.108386 -0.831470 -0.548997 -0.109195 -0.828639
-0.815492 -0.162211 0.555570 -0.817316 -0.162572 0.552751
-0.906127 -0.180240 0.382683 -0.906980 -0.180395 0.380535
-0.375330 -0.074658 -0.923880 -0.380413 -0.075655 -0.921690
-0.961939 -0.191341 0.195090 -0.962157 -0.191382 0.193915
0.000000 0.000000 1.000000 0.000000 0.000000 1.000000
0.000000 0.000000 -1.000000 0.000000 0.000000 -0.999969
-0.191341 0.038060 -0.980785 -0.197089 0.039186 -0.979583
-0.162211 0.108386 -0.980785 -0.167089 0.111637 -0.979583
0.000000 0.195090 -0.980785 0.000000 0.200964 -0.979583
0.074658 0.180240 -0.980785 0.076907 0.185644 -0.979583
0.162212 0.108386 -0.980785 0.167089 0.111637 -0.979583
0.162212 -0.108386 -0.980785 0.167089 -0.111637 -0.979583
0.074658 -0.180240 -0.980785 0.076907 -0.185644 -0.979583
0.000000 -0.195090 -0.980785 0.000000 -0.200964 -0.979583
-0.074657 -0.180240 -0.980785 -0.076907 -0.185644 -0.979583
-0.162211 -0.108386 -0.980785 -0.167089 -0.111637 -0.979583
-0.191341 -0.038060 -0.980785 -0.197089 -0.039186 -0.979583
3 0 1 2
3 3 4 5
3 0 6 7
3 8 5 9
3 10 11 7
3 12 9 13
3 14 10 15
3 16 13 17
3 18 19 17
3 20 21 22
3 18 23 24
3 20 25 26
3 1 27 24
3 3 28 26
3 24 29 30
3 4 26 31
3 6 2 30
3 4 32 33
3 6 34 35
3 5 33 36
3 15 7 35
3 9 36 37
3 15 38 39
3 17 13 37
3 17 40 41
3 25 22 42
3 24 23 41
3 25 43 31
3 39 38 44
3 40 37 45
3 40 46 47
3 43 42 48
3 29 41 47
3 31 43 49
3 29 50 51
3 32 31 52
3 30 51 53
3 33 32 54
3 34 53 55
3 33 56 57
3 38 35 55
3 37 36 57
3 52 58 59
3 53 51 60
3 54 59 61
3 55 53 62
3 57 56 61
3 44 55 63
3 57 64 65
3 44 66 67
3 46 45 65
3 46 68 69
3 48 70 71
3 50 47 69
3 49 71 58
3 50 72 60
3 68 65 73
3 68 74 75
3 70 76 77
3 72 69 75
3 58 71 77
3 72 78 79
3 58 80 81
3 62 60 79
3 59 81 82
3 63 62 83
3 64 61 82
3 63 84 85
3 64 86 73
3 66 85 87
3 79 88 89
3 81 90 91
3 83 89 92
3 86 82 91
3 85 84 92
3 86 93 94
3 85 95 96
3 74 73 94
3 74 97 98
3 77 76 99
3 75 98 100
3 77 101 102
3 79 78 100
3 81 80 102
3 98 97 103
3 101 99 104
3 98 105 106
3 102 101 107
3 88 100 106
3 102 108 109
3 89 88 110
3 90 109 111
3 92 89 112
3 91 111 113
3 95 92 114
3 94 93 113
3 96 95 115
3 94 116 103
3 111 109 117
3 112 118 119
3 111 120 121
3 114 119 122
3 116 113 121
3 123 115 122
3 116 124 125
3 105 103 125
3 107 104 126
3 105 127 128
3 107 129 130
3 110 106 128
3 109 108 130
3 110 131 118
3 125 132 133
3 126 134 135
3 127 133 136
3 130 129 135
3 131 128 136
3 130 137 138
3 118 131 139
3 117 138 140
3 119 118 141
3 120 140 142
3 122 119 143
3 124 121 142
3 122 144 145
3 125 124 146
3 143 141 147
3 140 148 149
3 143 150 151
3 146 142 149
3 145 144 151
3 146 152 153
3 132 153 154
3 134 155 156
3 133 154 157
3 137 135 156
3 139 136 157
3 137 158 159
3 139 160 147
3 140 138 159
3 154 161 162
3 158 156 163
3 160 157 162
3 158 164 165
3 160 166 167
3 148 159 165
3 150 147 167
3 148 168 169
3 150 170 171
3 152 149 169
3 151 171 172
3 152 173 174
3 154 153 174
3 156 155 175
3 171 170 176
3 173 169 177
3 172 171 178
3 174 173 179
3 174 180 181
3 175 182 183
3 161 181 184
3 163 183 185
3 162 184 186
3 164 185 187
3 167 166 186
3 165 187 188
3 170 167 189
3 169 168 188
3 183 190 191
3 186 184 192
3 185 191 193
3 186 194 195
3 188 187 193
3 176 189 195
3 188 196 197
3 176 198 199
3 177 197 200
3 201 178 199
3 180 179 200
3 180 202 203
3 182 204 190
3 184 181 203
3 197 205 206
3 199 207 208
3 202 200 206
3 202 209 210
3 204 211 212
3 203 210 213
3 191 190 212
3 192 213 214
3 193 191 215
3 195 194 214
3 193 216 217
3 195 218 219
3 197 196 217
3 198 219 207
3 213 220 221
3 216 215 222
3 218 214 221
3 216 223 224
3 219 218 225
3 205 217 224
3 207 219 226
3 205 227 228
3 207 229 230
3 209 206 228
3 209 231 232
3 212 211 233
3 213 210 232
3 215 212 234
3 229 235 236
3 231 228 237
3 231 238 239
3 234 233 240
3 220 232 239
3 234 241 242
3 220 243 244
3 222 242 245
3 221 244 246
3 224 223 245
3 226 225 246
3 227 224 247
3 229 226 248
3 227 249 237
3 245 242 250
3 246 244 251
3 245 252 253
3 246 254 255
3 247 253 256
3 248 255 257
3 237 249 256
3 236 235 257
3 237 258 259
3 239 238 259
3 240 260 261
3 239 262 263
3 242 241 261
3 244 243 263
3 258 264 265
3 262 259 265
3 260 266 267
3 262 268 269
3 261 267 270
3 251 263 269
3 250 270 271
3 251 272 273
3 253 252 271
3 254 273 274
3 253 275 276
3 255 274 277
3 258 256 276
3 278 257 277
3 272 279 280
3 275 271 281
3 274 273 280
3 275 282 283
3 277 274 284
3 264 276 283
3 285 277 286
3 264 287 288
3 268 265 288
3 266 289 290
3 268 291 292
3 267 290 293
3 272 269 292
3 270 293 281
3 291 288 294
3 290 289 295
3 291 296 297
3 290 298 299
3 279 292 297
3 281 293 299
3 279 300 301
3 282 281 302
3 280 301 303
3 282 304 305
3 286 284 303
3 287 283 305
3 286 306 307
3 287 308 294
3 301 309 310
3 304 311 312
3 303 310 313
3 308 305 312
3 306 313 314
3 294 308 315
3 294 316 317
3 298 295 318
3 296 317 319
3 299 298 320
3 300 297 319
3 302 299 321
3 300 322 309
3 304 302 323
3 318 324 325
3 317 326 327
3 320 325 328
3 322 319 327
3 321 328 329
3 309 322 330
3 323 329 331
3 310 309 332
3 311 331 333
3 313 310 334
3 315 312 333
3 314 313 335
3 315 336 337
3 316 337 326
3 333 331 338
3 335 334 339
3 336 333 340
3 335 341 342
3 336 343 344
3 337 344 345
3 325 324 346
3 326 345 347
3 325 348 349
3 327 347 350
3 329 328 349
3 330 350 351
3 331 329 352
3 332 351 339
3 345 353 354
3 348 355 356
3 347 354 357
3 352 349 356
3 351 350 357
3 352 358 359
3 351 360 361
3 338 359 362
3 341 339 361
3 340 362 363
3 342 341 364
3 344 343 363
3 344 365 353
3 346 366 355
3 364 361 367
3 363 362 368
3 364 369 370
3 363 371 372
3 353 365 372
3 355 366 373
3 353 374 375
3 355 376 377
3 354 375 378
3 356 377 379
3 357 378 380
3 359 358 379
3 361 360 380
3 362 359 381
3 376 382 383
3 375 384 385
3 377 383 386
3 380 378 385
3 379 386 387
3 380 388 389
3 368 381 387
3 369 367 389
3 371 368 390
3 370 369 391
3 371 392 393
3 374 372 393
3 373 394 382
3 374 395 384
3 392 390 396
3 391 397 398
3 392 399 400
3 393 400 401
3 382 394 402
3 395 401 403
3 383 382 404
3 384 403 405
3 386 383 406
3 385 405 407
3 387 386 408
3 388 407 409
3 390 387 410
3 391 389 409
3 405 403 411
3 406 412 413
3 405 414 415
3 410 408 413
3 409 407 415
3 410 416 417
3 409 418 419
3 396 417 420
3 397 419 421
3 399 420 422
3 401 400 422
3 402 423 424
3 403 401 425
3 404 424 412
3 421 419 426
3 422 420 427
3 422 428 429
3 423 430 431
3 425 429 432
3 424 431 433
3 414 411 432
3 412 433 434
3 415 414 435
3 413 434 436
3 418 415 437
3 416 436 438
3 419 418 439
3 417 438 427
3 435 440 441
3 436 434 442
3 437 441 443
3 436 444 445
3 426 439 443
3 438 445 446
3 426 447 448
3 428 427 446
3 428 449 450
3 431 430 451
3 432 429 450
3 433 431 452
3 435 432 453
3 434 433 454
3 450 449 455
3 451 456 457
3 450 458 459
3 454 452 457
3 440 453 459
3 454 460 461
3 440 462 463
3 444 442 461
3 441 463 464
3 444 465 466
3 443 464 467
3 446 445 466
3 448 447 467
3 446 468 455
3 21 469 22
3 470 14 471
3 22 469 42
3 470 471 39
3 42 469 48
3 470 39 472
3 48 469 70
3 470 472 67
3 70 469 76
3 470 67 87
3 76 469 99
3 470 87 96
3 99 469 104
3 470 96 123
3 104 469 126
3 470 123 473
3 126 469 134
3 470 473 145
3 134 469 155
3 470 145 474
3 155 469 175
3 470 474 172
3 175 469 182
3 470 172 201
3 182 469 204
3 470 201 475
3 204 469 211
3 470 475 208
3 211 469 233
3 470 208 230
3 233 469 240
3 470 230 236
3 240 469 260
3 470 236 278
3 260 469 266
3 470 278 285
3 266 469 289
3 470 285 476
3 470 476 307
3 289 469 295
3 295 469 318
3 470 307 314
3 318 469 324
3 470 314 477
3 324 469 346
3 470 477 342
3 346 469 366
3 470 342 478
3 366 469 373
3 470 478 370
3 373 469 394
3 470 370 479
3 394 469 402
3 470 479 398
3 402 469 423
3 470 398 421
3 423 469 430
3 470 421 480
3 430 469 451
3 470 480 448
3 451 469 456
3 470 448 481
3 465 461 3
3 0 11 464
3 466 465 8
3 464 11 10
3 468 466 12
3 467 10 14
3 468 16 19
3 456 469 21
3 470 481 14
3 458 455 19
3 20 457 456
3 458 18 27
3 460 457 20
3 459 27 1
3 460 28 3
3 0 463 462
3 6 0 2
3 8 3 5
3 11 0 7
3 12 8 9
3 15 10 7
3 16 12 13
3 471 14 15
3 19 16 17
3 23 18 17
3 25 20 22
3 27 18 24
3 28 20 26
3 2 1 24
3 4 3 26
3 2 24 30
3 32 4 31
3 34 6 30
3 5 4 33
3 7 6 35
3 9 5 36
3 38 15 35
3 13 9 37
3 471 15 39
3 40 17 37
3 23 17 41
3 43 25 42
3 29 24 41
3 26 25 31
3 472 39 44
3 46 40 45
3 41 40 47
3 49 43 48
3 50 29 47
3 52 31 49
3 30 29 51
3 54 32 52
3 34 30 53
3 56 33 54
3 35 34 55
3 36 33 57
3 44 38 55
3 45 37 57
3 54 52 59
3 62 53 60
3 56 54 61
3 63 55 62
3 64 57 61
3 66 44 63
3 45 57 65
3 472 44 67
3 68 46 65
3 47 46 69
3 49 48 71
3 72 50 69
3 52 49 58
3 51 50 60
3 74 68 73
3 69 68 75
3 71 70 77
3 78 72 75
3 80 58 77
3 60 72 79
3 59 58 81
3 83 62 79
3 61 59 82
3 84 63 83
3 86 64 82
3 66 63 85
3 65 64 73
3 67 66 87
3 83 79 89
3 82 81 91
3 84 83 92
3 93 86 91
3 95 85 92
3 73 86 94
3 87 85 96
3 97 74 94
3 75 74 98
3 101 77 99
3 78 75 100
3 80 77 102
3 88 79 100
3 90 81 102
3 105 98 103
3 107 101 104
3 100 98 106
3 108 102 107
3 110 88 106
3 90 102 109
3 112 89 110
3 91 90 111
3 114 92 112
3 93 91 113
3 115 95 114
3 116 94 113
3 123 96 115
3 97 94 103
3 120 111 117
3 114 112 119
3 113 111 121
3 115 114 122
3 124 116 121
3 473 123 122
3 103 116 125
3 127 105 125
3 129 107 126
3 106 105 128
3 108 107 130
3 131 110 128
3 117 109 130
3 112 110 118
3 127 125 133
3 129 126 135
3 128 127 136
3 137 130 135
3 139 131 136
3 117 130 138
3 141 118 139
3 120 117 140
3 143 119 141
3 121 120 142
3 144 122 143
3 146 124 142
3 473 122 145
3 132 125 146
3 150 143 147
3 142 140 149
3 144 143 151
3 152 146 149
3 474 145 151
3 132 146 153
3 133 132 154
3 135 134 156
3 136 133 157
3 158 137 156
3 160 139 157
3 138 137 159
3 141 139 147
3 148 140 159
3 157 154 162
3 164 158 163
3 166 160 162
3 159 158 165
3 147 160 167
3 168 148 165
3 170 150 167
3 149 148 169
3 151 150 171
3 173 152 169
3 474 151 172
3 153 152 174
3 161 154 174
3 163 156 175
3 178 171 176
3 179 173 177
3 201 172 178
3 180 174 179
3 161 174 181
3 163 175 183
3 162 161 184
3 164 163 185
3 166 162 186
3 165 164 187
3 189 167 186
3 168 165 188
3 176 170 189
3 177 169 188
3 185 183 191
3 194 186 192
3 187 185 193
3 189 186 195
3 196 188 193
3 198 176 195
3 177 188 197
3 178 176 199
3 179 177 200
3 475 201 199
3 202 180 200
3 181 180 203
3 183 182 190
3 192 184 203
3 200 197 206
3 475 199 208
3 209 202 206
3 203 202 210
3 190 204 212
3 192 203 213
3 215 191 212
3 194 192 214
3 216 193 215
3 218 195 214
3 196 193 217
3 198 195 219
3 205 197 217
3 199 198 207
3 214 213 221
3 223 216 222
3 225 218 221
3 217 216 224
3 226 219 225
3 227 205 224
3 229 207 226
3 206 205 228
3 208 207 230
3 231 209 228
3 210 209 232
3 234 212 233
3 220 213 232
3 222 215 234
3 230 229 236
3 238 231 237
3 232 231 239
3 241 234 240
3 243 220 239
3 222 234 242
3 221 220 244
3 223 222 245
3 225 221 246
3 247 224 245
3 248 226 246
3 249 227 247
3 235 229 248
3 228 227 237
3 252 245 250
3 254 246 251
3 247 245 253
3 248 246 255
3 249 247 256
3 235 248 257
3 258 237 256
3 278 236 257
3 238 237 259
3 262 239 259
3 241 240 261
3 243 239 263
3 250 242 261
3 251 244 263
3 259 258 265
3 268 262 265
3 261 260 267
3 263 262 269
3 250 261 270
3 272 251 269
3 252 250 271
3 254 251 273
3 275 253 271
3 255 254 274
3 256 253 276
3 257 255 277
3 264 258 276
3 285 278 277
3 273 272 280
3 282 275 281
3 284 274 280
3 276 275 283
3 286 277 284
3 287 264 283
3 476 285 286
3 265 264 288
3 291 268 288
3 267 266 290
3 269 268 292
3 270 267 293
3 279 272 292
3 271 270 281
3 296 291 294
3 298 290 295
3 292 291 297
3 293 290 299
3 300 279 297
3 302 281 299
3 280 279 301
3 304 282 302
3 284 280 303
3 283 282 305
3 306 286 303
3 308 287 305
3 476 286 307
3 288 287 294
3 303 301 310
3 305 304 312
3 306 303 313
3 315 308 312
3 307 306 314
3 316 294 315
3 296 294 317
3 320 298 318
3 297 296 319
3 321 299 320
3 322 300 319
3 323 302 321
3 301 300 309
3 311 304 323
3 320 318 325
3 319 317 327
3 321 320 328
3 330 322 327
3 323 321 329
3 332 309 330
3 311 323 331
3 334 310 332
3 312 311 333
3 335 313 334
3 336 315 333
3 477 314 335
3 316 315 337
3 317 316 326
3 340 333 338
3 341 335 339
3 343 336 340
3 477 335 342
3 337 336 344
3 326 337 345
3 348 325 346
3 327 326 347
3 328 325 349
3 330 327 350
3 352 329 349
3 332 330 351
3 338 331 352
3 334 332 339
3 347 345 354
3 349 348 356
3 350 347 357
3 358 352 356
3 360 351 357
3 338 352 359
3 339 351 361
3 340 338 362
3 364 341 361
3 343 340 363
3 478 342 364
3 365 344 363
3 345 344 353
3 348 346 355
3 369 364 367
3 371 363 368
3 478 364 370
3 365 363 372
3 374 353 372
3 376 355 373
3 354 353 375
3 356 355 377
3 357 354 378
3 358 356 379
3 360 357 380
3 381 359 379
3 367 361 380
3 368 362 381
3 377 376 383
3 378 375 385
3 379 377 386
3 388 380 385
3 381 379 387
3 367 380 389
3 390 368 387
3 391 369 389
3 392 371 390
3 479 370 391
3 372 371 393
3 395 374 393
3 376 373 382
3 375 374 384
3 399 392 396
3 479 391 398
3 393 392 400
3 395 393 401
3 404 382 402
3 384 395 403
3 406 383 404
3 385 384 405
3 408 386 406
3 388 385 407
3 410 387 408
3 389 388 409
3 396 390 410
3 397 391 409
3 414 405 411
3 408 406 413
3 407 405 415
3 416 410 413
3 418 409 415
3 396 410 417
3 397 409 419
3 399 396 420
3 398 397 421
3 400 399 422
3 425 401 422
3 404 402 424
3 411 403 425
3 406 404 412
3 480 421 426
3 428 422 427
3 425 422 429
3 424 423 431
3 411 425 432
3 412 424 433
3 435 414 432
3 413 412 434
3 437 415 435
3 416 413 436
3 439 418 437
3 417 416 438
3 426 419 439
3 420 417 427
3 437 435 441
3 444 436 442
3 439 437 443
3 438 436 445
3 447 426 443
3 427 438 446
3 480 426 448
3 449 428 446
3 429 428 450
3 452 431 451
3 453 432 450
3 454 433 452
3 440 435 453
3 442 434 454
3 458 450 455
3 452 451 457
3 453 450 459
3 460 454 457
3 462 440 459
3 442 454 461
3 441 440 463
3 465 444 461
3 443 441 464
3 445 444 466
3 447 443 467
3 468 446 466
3 481 448 467
3 449 446 455
3 8 465 3
3 463 0 464
3 12 466 8
3 467 464 10
3 16 468 12
3 481 467 14
3 455 468 19
3 18 458 19
3 21 20 456
3 459 458 27
3 28 460 20
3 462 459 1
3 461 460 3
3 1 0 462
